<?xml version="1.0" standalone="no"?>
<!DOCTYPE svg PUBLIC "-//W3C//DTD SVG 20010904//EN"
 "http://www.w3.org/TR/2001/REC-SVG-20010904/DTD/svg10.dtd">
<svg version="1.0" xmlns="http://www.w3.org/2000/svg"
 width="394.000000pt" height="632.000000pt" viewBox="0 0 394.000000 632.000000"
 preserveAspectRatio="xMidYMid meet">

<g transform="translate(0.000000,632.000000) scale(0.100000,-0.100000)"
fill="#000000" stroke="none">
<path d="M2267 3904 c-10 -13 -27 -24 -37 -24 -12 0 -20 -7 -20 -16 0 -10 -6
-14 -15 -10 -8 3 -15 2 -15 -3 0 -5 17 -11 38 -15 52 -8 64 -8 57 4 -4 6 -3
16 3 23 15 19 21 43 14 54 -4 7 -14 1 -25 -13z"/>
<path d="M2430 3833 c-16 -6 -30 -23 -30 -36 0 -4 9 -3 19 3 11 5 27 7 35 4
18 -7 19 -4 10 20 -6 17 -10 18 -34 9z"/>
<path d="M2230 3788 c-14 -6 -90 -13 -170 -17 -108 -5 -136 -9 -109 -15 21 -4
84 -2 150 5 194 23 208 21 275 -31 31 -25 59 -51 62 -57 7 -23 -30 -14 -50 12
-22 28 -41 33 -31 8 4 -11 3 -14 -5 -9 -28 17 -7 -13 48 -72 57 -60 75 -101
48 -103 -7 -1 -25 -3 -39 -4 -21 -3 -38 8 -78 48 -89 90 -120 152 -61 122 17
-9 35 -13 40 -10 5 3 19 -9 30 -27 23 -38 27 -30 5 12 -8 16 -12 35 -9 43 7
20 -22 29 -36 11 -16 -18 -40 -18 -68 2 -21 15 -25 15 -41 0 -21 -19 -43 -20
-59 -4 -10 10 -17 10 -34 -1 -17 -11 -22 -11 -29 1 -5 7 -9 9 -9 4 0 -5 -7 -3
-15 4 -8 7 -15 8 -15 3 0 -14 -60 -9 -69 6 -7 10 -13 7 -27 -14 -68 -95 -97
-111 -87 -47 l6 37 -24 -21 c-13 -11 -34 -19 -46 -18 -17 1 -23 -4 -23 -20 0
-12 -7 -32 -16 -44 -30 -43 -7 -33 40 18 26 27 48 50 49 50 2 0 1 -16 -1 -37
-4 -32 -3 -35 14 -28 11 4 25 8 32 8 8 0 18 11 23 24 5 13 16 26 24 29 8 4 15
14 15 24 0 11 5 22 11 26 13 8 8 -99 -6 -130 -6 -14 -5 -17 3 -12 6 4 14 23
17 44 12 66 13 67 52 68 21 0 41 -4 46 -10 5 -7 14 -3 26 12 l19 22 36 -21
c20 -11 36 -17 36 -12 0 5 6 18 14 28 13 18 15 16 35 -26 12 -25 51 -77 86
-115 35 -38 65 -74 65 -81 0 -6 6 -13 13 -16 8 -3 3 -14 -15 -31 -16 -15 -28
-33 -28 -41 0 -8 -12 -15 -27 -17 -22 -2 -29 -9 -31 -30 -2 -18 -11 -28 -27
-32 -14 -4 -36 -18 -50 -33 -21 -23 -23 -30 -11 -41 10 -11 19 -11 34 -3 58
31 213 17 220 -21 3 -13 -4 -15 -36 -11 -31 4 -44 1 -60 -15 -11 -11 -30 -23
-41 -27 -32 -10 -436 -14 -479 -5 -20 5 -79 10 -131 12 -104 4 -102 4 -181
115 -36 50 -37 63 -7 63 30 0 126 79 126 105 1 10 15 34 33 52 18 18 28 33 22
33 -12 0 -59 -60 -68 -86 -10 -31 -56 -69 -104 -84 -47 -15 -53 -12 -56 23 0
14 -4 23 -8 20 -5 -2 -8 0 -8 6 0 5 5 13 10 16 6 3 10 16 10 28 l0 21 -16 -22
c-8 -12 -20 -20 -26 -16 -6 4 -6 10 1 17 19 19 13 36 -11 29 -16 -4 -19 -2
-13 8 6 10 4 12 -8 7 -10 -4 -17 -1 -17 6 0 7 -7 3 -16 -8 -8 -11 -18 -20 -22
-20 -4 0 -7 -4 -7 -10 0 -5 -8 -22 -19 -38 -10 -15 -16 -36 -13 -48 5 -20 3
-21 -36 -15 -22 4 -46 11 -53 17 -6 5 -18 7 -25 4 -8 -2 -41 -7 -74 -9 -33 -2
-63 -5 -67 -5 -17 -2 -7 -30 13 -36 27 -9 17 -17 -23 -20 -20 -2 -41 -13 -55
-30 -13 -14 -36 -31 -53 -36 -31 -11 -55 -49 -66 -105 l-6 -34 58 -1 c33 -1
71 0 87 1 18 1 27 -3 27 -14 0 -10 15 -17 48 -21 66 -9 69 -11 85 -42 18 -35
32 -96 17 -72 -5 9 -27 20 -47 24 -56 10 -90 31 -97 60 -6 24 -10 25 -71 25
-53 0 -66 -3 -75 -19 -11 -21 2 -37 20 -26 5 3 8 0 5 -7 -4 -10 12 -13 65 -14
51 -1 75 -6 89 -18 10 -9 35 -20 56 -23 27 -4 39 -13 47 -32 6 -14 20 -46 32
-71 11 -25 21 -64 21 -87 0 -34 4 -43 17 -43 11 0 20 10 23 28 11 49 35 93 65
119 17 14 30 31 30 39 0 24 47 64 76 64 l26 0 -4 -90 c-3 -66 -9 -94 -21 -108
-16 -18 -16 -20 -2 -26 26 -9 35 2 35 41 0 46 29 195 41 207 13 14 16 7 33
-74 18 -85 21 -176 6 -185 -18 -11 -10 -25 15 -25 14 0 25 5 25 10 0 6 9 10
20 10 11 0 21 6 21 13 1 6 3 23 5 37 2 14 4 61 5 105 2 70 3 76 12 45 18 -69
20 -149 3 -175 -21 -32 -20 -35 8 -35 17 0 25 6 26 18 0 9 2 66 4 125 2 60 7
111 10 114 3 3 11 -6 17 -21 9 -20 9 -32 1 -51 -9 -20 -9 -30 0 -45 7 -11 17
-20 21 -20 10 0 1 90 -12 135 -5 17 -11 51 -14 78 l-5 47 393 0 c352 0 394 -2
399 -16 5 -13 1 -15 -18 -10 -14 3 -37 1 -51 -6 -22 -10 -28 -9 -36 3 -6 10
-9 1 -9 -28 0 -34 -3 -41 -15 -37 -11 5 -14 1 -9 -12 5 -18 5 -18 -9 -2 -20
25 -26 13 -13 -27 12 -37 40 -55 59 -36 6 6 14 11 17 11 11 0 30 -49 24 -64
-3 -8 4 -16 18 -20 42 -11 48 -7 48 30 0 35 1 35 33 29 42 -9 44 -12 28 -37
-12 -19 -11 -20 18 -16 34 5 35 3 46 -69 6 -38 5 -43 -13 -43 -11 0 -24 -6
-30 -12 -12 -16 -38 -105 -53 -181 -6 -31 -14 -55 -19 -52 -4 3 -22 -3 -39
-12 -30 -18 -30 -17 -59 11 -37 34 -47 76 -24 93 23 18 26 52 4 59 -9 3 -30
12 -45 21 -25 13 -30 13 -52 -1 -14 -9 -34 -35 -46 -57 -19 -38 -19 -43 -5
-86 12 -35 13 -48 3 -64 -10 -17 -9 -23 12 -40 l23 -19 -36 0 c-34 0 -41 -6
-37 -37 1 -9 -13 -13 -42 -13 -46 0 -57 -10 -57 -50 0 -14 -9 -20 -32 -22
l-31 -3 2 -85 c1 -46 5 -88 7 -92 3 -4 18 -8 35 -8 22 0 29 -5 29 -20 0 -11
-7 -20 -15 -20 -8 0 -15 -4 -15 -10 0 -5 20 -10 45 -10 39 0 46 -4 60 -30 20
-39 20 -38 -22 -43 -21 -2 36 -5 127 -7 349 -6 600 -3 582 9 -20 13 11 69 40
73 15 2 24 11 26 26 2 12 8 22 13 22 5 0 9 13 9 29 0 20 -9 37 -31 55 -28 24
-38 26 -124 26 -84 0 -95 2 -105 20 -9 17 -3 30 41 87 74 97 76 103 48 160
-12 26 -33 62 -45 78 -13 17 -37 61 -55 98 l-31 68 11 132 c18 195 20 210 41
235 17 20 26 22 129 22 87 0 111 3 111 14 0 9 -25 17 -77 25 -110 17 -117 20
-102 37 6 8 19 14 29 14 13 0 17 6 13 19 -4 15 3 19 37 25 24 4 49 2 62 -5 26
-14 43 7 25 31 -12 15 -20 22 -61 53 -19 14 -19 14 5 12 39 -4 40 -5 33 -17
-5 -8 0 -9 14 -6 12 4 25 2 28 -3 3 -5 12 -9 21 -9 9 0 22 -8 30 -17 13 -17
14 -16 9 5 -3 16 -1 22 8 19 9 -4 13 4 12 24 -1 20 -6 29 -17 29 -9 0 -19 7
-23 15 -3 9 -12 12 -22 8 -13 -5 -16 -2 -12 9 7 18 -37 78 -58 78 -9 0 -14 11
-14 29 0 17 -6 33 -12 37 -19 12 -141 12 -156 1 -7 -5 -15 -7 -19 -3 -3 3 -1
6 5 6 20 0 13 39 -8 50 -24 13 -53 6 -92 -21 -14 -11 -30 -19 -35 -19 -5 0
-31 22 -59 48 -173 167 -254 216 -314 190z m214 -148 c7 0 32 -14 55 -30 35
-26 40 -33 28 -44 -32 -33 -52 -28 -90 23 -40 53 -45 66 -21 57 9 -3 21 -6 28
-6z m236 -240 c-13 -9 -13 -11 0 -19 8 -5 19 -7 25 -4 5 4 6 2 2 -3 -5 -5 -29
-10 -54 -10 -25 -1 -48 -6 -52 -11 -10 -16 -40 -23 -47 -12 -9 15 6 27 45 33
19 2 37 9 40 14 6 9 29 20 46 21 6 0 3 -4 -5 -9z m-1292 -12 c-3 -7 -15 -14
-29 -16 -24 -4 -24 -3 -4 12 24 19 38 20 33 4z m1126 -14 c3 -8 2 -12 -4 -9
-6 3 -10 10 -10 16 0 14 7 11 14 -7z m-1101 -18 c3 -7 0 -19 -6 -25 -9 -10 -9
-12 2 -9 7 2 16 -3 18 -9 9 -25 -27 -25 -77 0 -50 25 -49 37 5 37 13 0 27 5
30 10 9 14 22 12 28 -4z m1288 -105 c-6 -11 -11 -31 -11 -45 0 -14 -4 -26 -10
-26 -5 0 -10 19 -10 43 0 32 3 39 11 27 8 -11 9 -7 6 18 -2 18 0 35 5 38 4 3
9 15 10 27 1 12 3 3 5 -20 2 -23 -1 -51 -6 -62z m37 44 l-12 -40 -4 33 c-4 41
5 69 18 56 6 -6 5 -24 -2 -49z m117 35 c0 -8 -5 -14 -11 -13 -7 1 -10 -5 -8
-15 8 -31 -11 -46 -43 -35 -24 9 -31 7 -46 -13 -20 -27 -21 -36 -5 -52 8 -8
15 -9 25 -1 15 13 17 1 4 -20 -5 -8 -11 -9 -15 -3 -3 5 -17 7 -31 4 -23 -4
-25 -2 -16 19 5 13 16 38 25 54 8 17 18 44 22 60 l7 30 7 -30 c4 -16 8 -22 9
-13 3 40 76 67 76 28z m-330 -19 c-3 -5 -1 -12 5 -16 5 -3 10 -18 9 -33 0 -26
-1 -25 -13 8 -12 32 -12 50 0 50 3 0 3 -4 -1 -9z m365 -1 c0 -5 -4 -10 -9 -10
-5 0 -13 -9 -16 -20 -3 -11 -11 -20 -16 -20 -5 0 -3 14 6 30 15 29 35 40 35
20z m-475 -16 c27 -18 35 -50 10 -40 -8 3 -37 8 -65 12 -51 7 -62 16 -35 31
26 15 65 13 90 -3z m73 10 c-4 -3 2 -14 13 -25 19 -19 26 -59 10 -59 -14 0
-61 48 -61 64 0 8 8 17 18 19 9 3 19 5 21 6 2 0 2 -2 -1 -5z m153 -127 c-15
-15 -28 0 -40 47 -6 24 -13 52 -17 62 -3 11 10 -8 30 -41 20 -34 32 -63 27
-68z m3 117 c11 -4 16 -19 16 -47 0 -44 -8 -42 -34 7 -20 38 -13 52 18 40z
m-1190 -26 c3 -13 6 -26 6 -29 0 -3 -19 -3 -42 0 -51 7 -54 18 -13 36 41 18
42 18 49 -7z m1126 -8 c6 -12 10 -33 7 -48 -3 -27 -3 -27 -20 10 -9 21 -17 42
-17 48 0 17 19 11 30 -10z m-1245 -64 c0 -13 -3 -22 -7 -19 -5 2 -8 -1 -8 -6
0 -19 -17 -12 -23 8 -5 20 9 41 28 41 5 0 10 -11 10 -24z m-55 0 c0 -3 -4 -8
-10 -11 -5 -3 -10 -1 -10 4 0 6 5 11 10 11 6 0 10 -2 10 -4z m-41 -17 c-18
-11 -46 -11 -53 0 -3 5 10 9 31 9 24 0 32 -3 22 -9z m1299 -6 c2 -8 -6 -13
-22 -13 -25 0 -33 10 -19 24 10 10 36 3 41 -11z m-1381 -69 c-3 -3 -12 -4 -19
-1 -8 3 -5 6 6 6 11 1 17 -2 13 -5z m87 -10 c3 -9 6 -25 6 -37 -1 -22 -1 -22
-15 -3 -17 22 -20 56 -6 56 5 0 12 -7 15 -16z m56 6 c0 -5 -4 -10 -10 -10 -5
0 -10 5 -10 10 0 6 5 10 10 10 6 0 10 -4 10 -10z m60 2 c0 -5 -18 -28 -40 -52
-22 -24 -40 -47 -40 -52 0 -4 -4 -8 -8 -8 -5 0 -7 13 -4 30 6 40 92 116 92 82z
m1205 -2 c11 -17 -5 -32 -21 -19 -8 6 -14 15 -14 20 0 12 27 11 35 -1z m36 -3
c-1 -12 -15 -9 -19 4 -3 6 1 10 8 8 6 -3 11 -8 11 -12z m-1379 -64 c11 -23 18
-55 16 -70 -3 -23 -7 -18 -26 36 -12 36 -22 74 -21 85 0 15 2 16 6 6 3 -8 14
-34 25 -57z m146 0 c-5 -21 -21 -49 -34 -63 -13 -14 -26 -39 -30 -56 -3 -16
-14 -41 -25 -54 l-19 -25 0 53 c0 41 6 61 23 84 21 29 87 98 93 98 1 0 -2 -17
-8 -37z m62 17 c0 -10 -39 -34 -46 -27 -3 2 -2 12 2 21 7 17 44 23 44 6z m40
-10 c0 -5 -23 -21 -51 -34 -62 -30 -61 -15 1 17 25 14 46 25 48 26 1 0 2 -3 2
-9z m149 -110 c15 -25 16 -40 9 -92 -11 -81 -28 -99 -29 -32 -1 27 -2 73 -4
102 -1 28 0 52 2 52 2 0 11 -13 22 -30z m-269 1 c-5 -11 -15 -23 -22 -27 -6
-4 -9 -3 -6 2 3 5 8 17 11 27 4 9 11 17 17 17 8 0 8 -6 0 -19z m1310 -21 c0
-5 -2 -10 -4 -10 -3 0 -8 5 -11 10 -3 6 -1 10 4 10 6 0 11 -4 11 -10z m-140
-465 c0 -43 -1 -45 -20 -35 -12 6 -25 22 -30 36 -13 33 -13 32 8 37 39 10 42
7 42 -38z m-200 5 c0 -11 -2 -20 -4 -20 -2 0 -6 9 -9 20 -3 11 -1 20 4 20 5 0
9 -9 9 -20z m52 -22 c-7 -7 -12 -8 -12 -2 0 6 3 14 7 17 3 4 9 5 12 2 2 -3 -1
-11 -7 -17z m65 -4 c-3 -3 -12 -4 -19 -1 -8 3 -5 6 6 6 11 1 17 -2 13 -5z
m160 -71 c5 -14 -20 -23 -46 -16 -20 5 -26 14 -16 24 8 9 59 2 62 -8z m-322
-8 c-21 -17 -37 -15 -43 3 -2 8 8 12 30 12 31 -1 32 -1 13 -15z m125 5 c0 -5
-20 -10 -45 -10 -25 0 -45 5 -45 10 0 6 20 10 45 10 25 0 45 -4 45 -10z m110
0 c0 -5 -20 -10 -45 -10 -25 0 -45 5 -45 10 0 6 20 10 45 10 25 0 45 -4 45
-10z m-138 -90 l-4 -61 99 3 98 3 3 49 c2 32 -1 52 -10 58 -8 6 8 8 45 5 64
-4 79 -14 102 -69 l15 -38 -53 0 c-29 0 -58 5 -65 12 -17 17 -15 54 4 72 8 9
12 16 7 16 -18 0 -33 -25 -33 -55 0 -52 9 -55 185 -55 112 0 165 -4 173 -12
15 -15 16 -118 2 -118 -6 0 -15 11 -20 24 -12 34 -39 46 -101 46 -53 0 -89
-19 -89 -46 0 -7 -8 -18 -19 -23 -24 -13 -298 -14 -306 -1 -4 6 48 11 137 12
l143 2 -144 3 c-139 3 -145 5 -167 28 -19 21 -32 25 -78 25 -69 0 -83 -6 -102
-41 -21 -42 -34 -36 -34 16 0 25 5 45 10 45 6 0 10 9 10 20 0 17 8 19 88 22
l87 3 0 58 c0 31 4 57 10 57 6 0 9 -24 7 -60z m-32 -5 l0 -45 -80 0 -80 0 0
45 0 45 80 0 80 0 0 -45z m210 0 l0 -45 -80 0 -80 0 0 45 0 45 80 0 80 0 0
-45z m-410 -50 c0 -73 -1 -75 -25 -75 -24 0 -25 2 -25 75 0 73 1 75 25 75 24
0 25 -2 25 -75z m218 -87 c7 -7 12 -21 12 -32 0 -19 0 -19 -22 1 -13 11 -31
23 -41 26 -19 7 -68 -8 -78 -25 -4 -6 -12 -9 -18 -7 -8 3 -6 11 4 27 14 18 25
22 74 22 31 0 62 -5 69 -12z m536 -4 c9 -8 16 -22 16 -30 0 -11 -7 -10 -29 7
-37 28 -75 27 -113 -1 l-30 -22 7 23 c11 33 22 39 82 39 34 0 57 -5 67 -16z
m-554 -34 c23 -23 24 -33 9 -63 -16 -29 -28 -37 -61 -37 -33 0 -68 31 -68 60
0 29 36 60 70 60 17 0 39 -9 50 -20z m539 -6 c50 -64 -46 -128 -105 -69 l-24
24 6 -24 6 -25 -206 0 c-113 0 -206 2 -206 5 0 4 7 19 15 36 l16 30 187 -1
c147 -1 187 1 191 12 14 44 89 52 120 12z"/>
<path d="M2266 2067 c-10 -7 -16 -22 -14 -33 2 -14 12 -19 38 -19 30 0 35 3
35 24 0 13 -5 26 -11 28 -6 2 -10 -7 -10 -19 1 -14 -6 -24 -16 -26 -21 -4 -25
27 -6 46 16 16 6 15 -16 -1z"/>
<path d="M2800 2065 c-29 -35 20 -74 56 -45 18 16 18 25 -2 44 -19 20 -38 20
-54 1z m49 -14 c18 -11 5 -31 -20 -31 -12 0 -19 7 -19 20 0 21 16 26 39 11z"/>
<path d="M1682 3738 c-20 -23 -48 -54 -62 -70 -14 -15 -38 -44 -55 -63 -16
-20 -42 -50 -57 -67 -16 -17 -28 -37 -28 -45 0 -7 26 17 59 54 32 38 67 76 78
86 20 17 21 17 27 -9 5 -17 2 -32 -7 -43 -41 -48 -21 -38 38 19 38 36 74 70
82 77 7 6 13 15 13 18 0 4 -22 -12 -50 -35 -33 -27 -50 -37 -50 -27 0 9 -5 17
-11 19 -16 5 8 58 44 96 17 17 27 32 23 32 -4 0 -24 -19 -44 -42z"/>
<path d="M1810 3770 l-65 -7 65 -1 c36 0 74 3 85 8 l20 9 -20 -1 c-11 -1 -49
-4 -85 -8z"/>
<path d="M2482 3728 c-17 -17 -15 -33 3 -18 8 6 19 8 26 4 7 -4 10 -2 7 6 -6
19 -22 22 -36 8z"/>
<path d="M1866 3564 c-7 -18 -4 -23 61 -99 30 -35 41 -55 37 -69 -4 -12 -2
-16 5 -12 22 14 10 42 -44 101 -37 41 -53 66 -49 78 7 22 -2 23 -10 1z"/>
<path d="M2038 3524 c-11 -23 -9 -28 20 -50 18 -14 32 -33 32 -42 1 -15 2 -15
11 1 6 10 9 20 7 21 -1 1 -17 12 -35 25 -28 19 -31 25 -23 46 13 33 3 32 -12
-1z"/>
<path d="M1550 3504 c-63 -50 -64 -65 -1 -18 28 21 51 42 51 46 0 12 -1 11
-50 -28z"/>
<path d="M2189 3462 c11 -22 26 -44 32 -47 6 -4 1 11 -10 33 -11 22 -26 44
-32 47 -6 4 -1 -11 10 -33z"/>
<path d="M2762 2904 c-16 -18 -7 -34 18 -34 23 0 32 13 24 34 -8 20 -25 20
-42 0z"/>
<path d="M1163 2794 c-3 -8 -12 -13 -20 -9 -10 3 -13 1 -10 -9 3 -8 1 -16 -4
-18 -6 -2 1 -10 15 -17 18 -10 32 -11 47 -5 20 9 21 11 4 27 -9 10 -14 24 -11
32 3 8 1 15 -5 15 -5 0 -12 -7 -16 -16z"/>
<path d="M1488 2531 c-17 -11 -49 -16 -123 -17 -64 0 -108 -5 -121 -14 -25
-16 -50 -68 -58 -125 -3 -26 -3 -33 3 -20 13 32 25 -54 12 -89 -16 -40 -13
-71 7 -89 29 -26 41 -20 44 23 2 22 8 40 13 40 6 0 11 -18 13 -40 3 -37 5 -40
33 -40 31 0 36 10 18 39 -7 10 -9 30 -5 44 6 25 11 27 61 29 30 0 61 1 68 2 8
1 12 -15 12 -51 -1 -51 0 -53 27 -53 26 0 28 3 28 38 0 21 3 41 6 45 13 13 44
-19 44 -45 0 -24 4 -28 30 -28 28 0 29 2 23 33 -3 17 -15 47 -25 66 -14 24
-18 44 -14 67 6 32 7 32 42 21 l36 -11 -7 -67 c-8 -75 4 -109 36 -109 16 0 19
4 14 18 -16 38 8 148 36 163 25 13 26 42 0 34 -14 -4 -20 1 -25 20 -4 15 -21
41 -39 59 -18 18 -36 41 -42 50 -14 24 -116 29 -147 7z"/>
<path d="M1180 2281 c0 -25 6 -27 13 -6 4 8 2 17 -3 20 -6 4 -10 -3 -10 -14z"/>
<path d="M1822 2290 c-18 -4 -35 -9 -37 -11 -3 -4 -8 -56 -6 -76 1 -18 29 -16
48 3 15 14 17 14 26 -1 8 -14 11 -15 18 -4 5 9 9 10 9 2 0 -6 8 -9 19 -6 29 7
33 58 6 83 -23 21 -31 22 -83 10z m75 -72 c-3 -7 -5 -2 -5 12 0 14 2 19 5 13
2 -7 2 -19 0 -25z"/>
<path d="M1738 2193 c7 -3 16 -2 19 1 4 3 -2 6 -13 5 -11 0 -14 -3 -6 -6z"/>
<path d="M870 1857 c0 -38 4 -67 10 -67 6 0 10 19 10 43 l1 42 39 -42 40 -42
-2 67 c-1 41 -3 53 -5 30 -2 -21 -7 -38 -11 -38 -3 0 -23 17 -44 37 l-38 37 0
-67z"/>
<path d="M1000 1855 l0 -65 35 0 c19 0 35 5 35 10 0 6 -11 10 -25 10 -18 0
-25 5 -25 20 0 13 7 20 19 20 11 0 23 5 26 10 4 6 -5 10 -19 10 -38 0 -36 37
2 43 22 3 20 4 -10 6 l-38 1 0 -65z"/>
<path d="M1100 1855 l0 -65 41 0 c24 0 38 4 34 10 -3 6 -17 10 -31 10 -23 0
-24 3 -24 55 0 30 -4 55 -10 55 -6 0 -10 -28 -10 -65z"/>
<path d="M1190 1858 c0 -39 4 -68 10 -68 6 0 10 17 10 38 l1 37 23 -29 24 -29
18 29 19 28 6 -39 c5 -35 6 -32 8 23 0 34 -1 62 -3 62 -2 0 -14 -17 -26 -37
l-22 -38 -17 24 c-9 14 -24 34 -33 45 -17 20 -17 19 -18 -46z"/>
<path d="M1387 1913 c-5 -8 -47 -116 -47 -120 0 -2 5 -3 10 -3 6 0 10 7 10 15
0 10 10 15 29 15 16 0 31 -6 35 -15 3 -8 10 -15 15 -15 5 0 -1 28 -15 62 -26
68 -30 73 -37 61z m23 -64 c0 -5 -7 -9 -15 -9 -15 0 -20 12 -9 23 8 8 24 -1
24 -14z"/>
<path d="M1471 1853 c1 -37 4 -56 6 -40 5 34 16 34 41 2 20 -25 40 -35 25 -12
-4 6 -8 35 -8 62 0 49 -1 50 -32 53 l-33 3 1 -68z m57 31 c3 -22 -21 -39 -39
-28 -11 6 -12 38 -2 48 13 13 38 1 41 -20z"/>
<path d="M1582 1855 c0 -38 3 -58 5 -42 5 34 10 34 45 0 32 -31 37 -20 8 17
-24 31 -24 38 -3 62 21 23 8 37 -14 15 -15 -15 -17 -15 -29 1 -11 14 -13 6
-12 -53z"/>
<path d="M1748 1913 c20 -4 22 -10 22 -64 0 -33 4 -59 10 -59 6 0 10 26 10 59
0 48 3 60 18 64 9 3 -5 5 -33 4 -27 0 -40 -2 -27 -4z"/>
<path d="M1847 1902 c-24 -26 -21 -59 8 -87 28 -29 57 -32 79 -9 45 44 21 114
-38 114 -19 0 -40 -8 -49 -18z m91 -40 c2 -23 -2 -34 -18 -42 -41 -22 -80 13
-65 59 13 43 78 30 83 -17z"/>
<path d="M1992 1870 c-2 -58 9 -80 38 -80 30 0 50 34 50 83 0 26 -4 47 -10 47
-5 0 -10 -22 -10 -49 0 -53 -9 -66 -40 -56 -15 5 -20 17 -23 58 l-3 52 -2 -55z"/>
<path d="M2111 1853 c1 -38 4 -56 6 -40 5 34 26 35 48 1 9 -14 19 -23 22 -20
3 3 0 12 -7 21 -10 12 -10 21 0 45 16 38 0 60 -41 60 l-29 0 1 -67z m54 27 c0
-29 -32 -41 -41 -16 -9 24 4 48 23 44 12 -2 18 -12 18 -28z"/>
<path d="M2284 1906 c-3 -8 -4 -20 -3 -27 1 -8 -1 -22 -6 -32 -10 -23 20 -57
52 -57 18 0 23 5 23 27 0 25 -1 26 -14 8 -15 -21 -46 -14 -46 10 0 9 9 15 25
15 31 0 33 17 3 22 -13 2 -23 10 -23 18 0 10 8 14 23 13 12 -2 22 2 22 7 0 15
-50 12 -56 -4z"/>
<path d="M2436 1905 c-3 -8 6 -28 20 -45 27 -32 24 -55 -7 -45 -10 4 -19 2
-19 -4 0 -16 40 -24 55 -11 21 18 19 33 -10 64 -26 28 -26 49 0 39 8 -3 15 0
15 6 0 16 -47 13 -54 -4z"/>
<path d="M2546 1866 c-28 -63 -33 -92 -12 -63 16 21 66 23 66 2 0 -8 5 -15 10
-15 14 0 13 8 -14 74 l-25 60 -25 -58z m30 -23 c-10 -10 -19 5 -10 18 6 11 8
11 12 0 2 -7 1 -15 -2 -18z"/>
<path d="M2640 1855 c0 -37 4 -65 10 -65 6 0 10 14 10 30 0 25 4 30 25 30 14
0 25 5 25 10 0 6 -12 10 -26 10 -37 0 -28 33 11 41 27 6 26 7 -12 8 l-43 1 0
-65z"/>
<path d="M2748 1855 c-19 -49 -22 -65 -12 -65 8 0 14 7 14 15 0 10 10 15 30
15 20 0 30 -5 30 -15 0 -8 4 -15 9 -15 10 0 -23 108 -37 122 -5 5 -20 -21 -34
-57z m42 -1 c0 -8 -6 -14 -14 -14 -9 0 -12 7 -9 20 6 22 23 18 23 -6z"/>
<path d="M2850 1855 c0 -37 4 -65 10 -65 6 0 10 11 10 25 0 32 13 32 35 -1 18
-29 32 -26 17 3 -7 12 -7 25 0 36 5 10 7 29 4 43 -5 20 -13 24 -41 24 l-35 0
0 -65z m60 45 c18 -11 3 -43 -24 -48 -12 -3 -16 4 -16 27 0 32 13 39 40 21z"/>
<path d="M2960 1855 c0 -37 4 -65 10 -65 6 0 10 28 10 65 0 37 -4 65 -10 65
-6 0 -10 -28 -10 -65z"/>
</g>
</svg>
